{
  "accessors": [
    {
      "bufferView": 2,
      "componentType": 5126,
      "count": 806,
      "max": [
        0.2049368917942047,
        0.1785472333431244,
        0.07817235589027405
      ],
      "min": [
        -0.30121007561683655,
        -0.35223543643951416,
        -0.07817235589027405
      ],
      "type": "VEC3"
    },
    {
      "bufferView": 2,
      "byteOffset": 9672,
      "componentType": 5126,
      "count": 806,
      "max": [
        1.0,
        1.0,
        1.0
      ],
      "min": [
        -1.0,
        -1.0,
        -1.0
      ],
      "type": "VEC3"
    },
    {
      "bufferView": 1,
      "componentType": 5126,
      "count": 806,
      "max": [
        1.0,
        1.0
      ],
      "min": [
        0.0,
        0.01000000536441803
      ],
      "type": "VEC2"
    },
    {
      "bufferView": 0,
      "componentType": 5125,
      "count": 1152,
      "type": "SCALAR"
    },
    {
      "bufferView": 2,
      "byteOffset": 19344,
      "componentType": 5126,
      "count": 1448,
      "max": [
        0.06906335055828094,
        0.05671925097703934,
        0.18296603858470917
      ],
      "min": [
        -0.18282072246074677,
        -0.05671919882297516,
        -0.18296651542186737
      ],
      "type": "VEC3"
    },
    {
      "bufferView": 2,
      "byteOffset": 36720,
      "componentType": 5126,
      "count": 1448,
      "max": [
        1.0,
        1.0,
        1.0
      ],
      "min": [
        -1.0,
        -1.0,
        -1.0
      ],
      "type": "VEC3"
    },
    {
      "bufferView": 1,
      "byteOffset": 6448,
      "componentType": 5126,
      "count": 1448,
      "max": [
        1.0,
        0.9774388074874878
      ],
      "min": [
        0.0,
        0.01000000536441803
      ],
      "type": "VEC2"
    },
    {
      "bufferView": 0,
      "byteOffset": 4608,
      "componentType": 5125,
      "count": 2118,
      "type": "SCALAR"
    },
    {
      "bufferView": 2,
      "byteOffset": 54096,
      "componentType": 5126,
      "count": 619,
      "max": [
        0.3102606236934662,
        0.06197415664792061,
        0.18405339121818542
      ],
      "min": [
        -0.06332612782716751,
        -0.06197413057088852,
        -0.1641983985900879
      ],
      "type": "VEC3"
    },
    {
      "bufferView": 2,
      "byteOffset": 61524,
      "componentType": 5126,
      "count": 619,
      "max": [
        1.0,
        1.0,
        1.0
      ],
      "min": [
        -1.0,
        -1.0,
        -1.0
      ],
      "type": "VEC3"
    },
    {
      "bufferView": 1,
      "byteOffset": 18032,
      "componentType": 5126,
      "count": 619,
      "max": [
        1.0,
        0.9447173476219177
      ],
      "min": [
        0.0,
        0.01000000536441803
      ],
      "type": "VEC2"
    },
    {
      "bufferView": 0,
      "byteOffset": 13080,
      "componentType": 5125,
      "count": 960,
      "type": "SCALAR"
    },
    {
      "bufferView": 2,
      "byteOffset": 68952,
      "componentType": 5126,
      "count": 2668,
      "max": [
        0.4990934431552887,
        0.19886578619480133,
        0.023237332701683044
      ],
      "min": [
        -0.4941282868385315,
        -0.02323732152581215,
        -0.0995841771364212
      ],
      "type": "VEC3"
    },
    {
      "bufferView": 2,
      "byteOffset": 100968,
      "componentType": 5126,
      "count": 2668,
      "max": [
        1.0,
        0.9974349141120911,
        0.9974349141120911
      ],
      "min": [
        -1.0,
        -0.9974349141120911,
        -0.9974349141120911
      ],
      "type": "VEC3"
    },
    {
      "bufferView": 1,
      "byteOffset": 22984,
      "componentType": 5126,
      "count": 2668,
      "max": [
        1.0,
        1.0000001192092896
      ],
      "min": [
        -15.875,
        0.0
      ],
      "type": "VEC2"
    },
    {
      "bufferView": 0,
      "byteOffset": 16920,
      "componentType": 5125,
      "count": 3126,
      "type": "SCALAR"
    },
    {
      "bufferView": 2,
      "byteOffset": 132984,
      "componentType": 5126,
      "count": 2235,
      "max": [
        1.5115830898284912,
        0.0636550560593605,
        0.3505058288574219
      ],
      "min": [
        -0.31643226742744446,
        -0.08147628605365753,
        -0.3505058288574219
      ],
      "type": "VEC3"
    },
    {
      "bufferView": 2,
      "byteOffset": 159804,
      "componentType": 5126,
      "count": 2235,
      "max": [
        1.0,
        1.0,
        1.0
      ],
      "min": [
        -1.0,
        -1.0,
        -1.0
      ],
      "type": "VEC3"
    },
    {
      "bufferView": 1,
      "byteOffset": 44328,
      "componentType": 5126,
      "count": 2235,
      "max": [
        1.0,
        0.9768170118331909
      ],
      "min": [
        0.0,
        0.0
      ],
      "type": "VEC2"
    },
    {
      "bufferView": 0,
      "byteOffset": 29424,
      "componentType": 5125,
      "count": 3240,
      "type": "SCALAR"
    },
    {
      "bufferView": 2,
      "byteOffset": 186624,
      "componentType": 5126,
      "count": 280,
      "max": [
        0.08451487869024277,
        0.1903393566608429,
        0.24755167961120605
      ],
      "min": [
        -0.05012429133057594,
        -0.0991242527961731,
        -0.03597236052155495
      ],
      "type": "VEC3"
    },
    {
      "bufferView": 2,
      "byteOffset": 189984,
      "componentType": 5126,
      "count": 280,
      "max": [
        1.0,
        1.0,
        1.0
      ],
      "min": [
        -1.0,
        -1.0,
        -1.0
      ],
      "type": "VEC3"
    },
    {
      "bufferView": 1,
      "byteOffset": 62208,
      "componentType": 5126,
      "count": 280,
      "max": [
        0.875,
        1.0
      ],
      "min": [
        0.125,
        0.0
      ],
      "type": "VEC2"
    },
    {
      "bufferView": 0,
      "byteOffset": 42384,
      "componentType": 5125,
      "count": 420,
      "type": "SCALAR"
    },
    {
      "bufferView": 2,
      "byteOffset": 193344,
      "componentType": 5126,
      "count": 4427,
      "max": [
        0.9476127624511719,
        0.23091620206832886,
        0.11768782138824463
      ],
      "min": [
        -0.9476128816604614,
        -0.10930752754211426,
        -0.1184878945350647
      ],
      "type": "VEC3"
    },
    {
      "bufferView": 2,
      "byteOffset": 246468,
      "componentType": 5126,
      "count": 4427,
      "max": [
        1.0,
        1.0,
        1.0
      ],
      "min": [
        -1.0,
        -1.0,
        -1.0
      ],
      "type": "VEC3"
    },
    {
      "bufferView": 1,
      "byteOffset": 64448,
      "componentType": 5126,
      "count": 4427,
      "max": [
        1.0,
        1.000000238418579
      ],
      "min": [
        -0.004194546490907669,
        0.01000000536441803
      ],
      "type": "VEC2"
    },
    {
      "bufferView": 0,
      "byteOffset": 44064,
      "componentType": 5125,
      "count": 6111,
      "type": "SCALAR"
    },
    {
      "bufferView": 2,
      "byteOffset": 299592,
      "componentType": 5126,
      "count": 500,
      "max": [
        0.04800000786781311,
        0.22349999845027924,
        0.04800000786781311
      ],
      "min": [
        -0.04800000786781311,
        -0.22350002825260162,
        -0.04800000786781311
      ],
      "type": "VEC3"
    },
    {
      "bufferView": 2,
      "byteOffset": 305592,
      "componentType": 5126,
      "count": 500,
      "max": [
        0.9238798022270203,
        1.0,
        0.9238796234130859
      ],
      "min": [
        -0.9238798022270203,
        -1.0,
        -0.9238796234130859
      ],
      "type": "VEC3"
    },
    {
      "bufferView": 1,
      "byteOffset": 99864,
      "componentType": 5126,
      "count": 500,
      "max": [
        1.0,
        1.0
      ],
      "min": [
        0.010384359396994114,
        0.0
      ],
      "type": "VEC2"
    },
    {
      "bufferView": 0,
      "byteOffset": 68508,
      "componentType": 5125,
      "count": 756,
      "type": "SCALAR"
    },
    {
      "bufferView": 2,
      "byteOffset": 311592,
      "componentType": 5126,
      "count": 454,
      "max": [
        0.04800000786781311,
        0.1599999964237213,
        0.04800000786781311
      ],
      "min": [
        -0.04800000786781311,
        -0.28700000047683716,
        -0.04800000786781311
      ],
      "type": "VEC3"
    },
    {
      "bufferView": 2,
      "byteOffset": 317040,
      "componentType": 5126,
      "count": 454,
      "max": [
        0.923879861831665,
        1.0,
        0.9238799214363098
      ],
      "min": [
        -0.923879861831665,
        -1.0,
        -0.9238798022270203
      ],
      "type": "VEC3"
    },
    {
      "bufferView": 1,
      "byteOffset": 103864,
      "componentType": 5126,
      "count": 454,
      "max": [
        0.6146138906478882,
        0.9551718235015869
      ],
      "min": [
        7.564024961936866e-09,
        2.224294171071506e-08
      ],
      "type": "VEC2"
    },
    {
      "bufferView": 0,
      "byteOffset": 71532,
      "componentType": 5125,
      "count": 690,
      "type": "SCALAR"
    },
    {
      "bufferView": 2,
      "byteOffset": 322488,
      "componentType": 5126,
      "count": 172,
      "max": [
        0.02850000001490116,
        0.28700000047683716,
        0.02850000001490116
      ],
      "min": [
        -0.02850000001490116,
        0.1599999964237213,
        -0.02850000001490116
      ],
      "type": "VEC3"
    },
    {
      "bufferView": 2,
      "byteOffset": 324552,
      "componentType": 5126,
      "count": 172,
      "max": [
        0.9229356050491333,
        1.0,
        0.9229356050491333
      ],
      "min": [
        -0.9229356050491333,
        0.04519317299127579,
        -0.9229356050491333
      ],
      "type": "VEC3"
    },
    {
      "bufferView": 1,
      "byteOffset": 107496,
      "componentType": 5126,
      "count": 172,
      "max": [
        0.6428957581520081,
        0.9196081161499023
      ],
      "min": [
        0.0,
        0.7103414535522461
      ],
      "type": "VEC2"
    },
    {
      "bufferView": 0,
      "byteOffset": 74292,
      "componentType": 5125,
      "count": 258,
      "type": "SCALAR"
    },
    {
      "bufferView": 2,
      "byteOffset": 326616,
      "componentType": 5126,
      "count": 3818,
      "max": [
        0.04760169982910156,
        0.40198469161987305,
        0.2545679211616516
      ],
      "min": [
        -1.9070656299591064,
        -0.5998438000679016,
        -0.25456786155700684
      ],
      "type": "VEC3"
    },
    {
      "bufferView": 2,
      "byteOffset": 372432,
      "componentType": 5126,
      "count": 3818,
      "max": [
        1.0,
        1.0,
        1.0
      ],
      "min": [
        -1.0,
        -1.0,
        -1.0
      ],
      "type": "VEC3"
    },
    {
      "bufferView": 1,
      "byteOffset": 108872,
      "componentType": 5126,
      "count": 3818,
      "max": [
        1.0,
        1.0
      ],
      "min": [
        0.0,
        0.0
      ],
      "type": "VEC2"
    },
    {
      "bufferView": 0,
      "byteOffset": 75324,
      "componentType": 5125,
      "count": 5487,
      "type": "SCALAR"
    },
    {
      "bufferView": 2,
      "byteOffset": 418248,
      "componentType": 5126,
      "count": 2383,
      "max": [
        0.04857832193374634,
        0.38395267724990845,
        0.2545679211616516
      ],
      "min": [
        -3.6422507762908936,
        -0.19454272091388702,
        -0.25456786155700684
      ],
      "type": "VEC3"
    },
    {
      "bufferView": 2,
      "byteOffset": 446844,
      "componentType": 5126,
      "count": 2383,
      "max": [
        1.0,
        1.0,
        1.0
      ],
      "min": [
        -1.0,
        -1.0,
        -1.0
      ],
      "type": "VEC3"
    },
    {
      "bufferView": 1,
      "byteOffset": 139416,
      "componentType": 5126,
      "count": 2383,
      "max": [
        1.0,
        1.0
      ],
      "min": [
        0.0,
        0.0
      ],
      "type": "VEC2"
    },
    {
      "bufferView": 0,
      "byteOffset": 97272,
      "componentType": 5125,
      "count": 3501,
      "type": "SCALAR"
    },
    {
      "bufferView": 2,
      "byteOffset": 475440,
      "componentType": 5126,
      "count": 3034,
      "max": [
        1.544367790222168,
        0.19019074738025665,
        0.16680172085762024
      ],
      "min": [
        -1.1226320266723633,
        -0.16680015623569489,
        -0.16680173575878143
      ],
      "type": "VEC3"
    },
    {
      "bufferView": 2,
      "byteOffset": 511848,
      "componentType": 5126,
      "count": 3034,
      "max": [
        1.0,
        1.0,
        1.0
      ],
      "min": [
        -1.0,
        -1.0,
        -1.0
      ],
      "type": "VEC3"
    },
    {
      "bufferView": 1,
      "byteOffset": 158480,
      "componentType": 5126,
      "count": 3034,
      "max": [
        1.0,
        1.0
      ],
      "min": [
        0.0,
        0.0
      ],
      "type": "VEC2"
    },
    {
      "bufferView": 0,
      "byteOffset": 111276,
      "componentType": 5125,
      "count": 4380,
      "type": "SCALAR"
    },
    {
      "bufferView": 2,
      "byteOffset": 548256,
      "componentType": 5126,
      "count": 234,
      "max": [
        1.1069188117980957,
        0.22024907171726227,
        0.02596537210047245
      ],
      "min": [
        -1.1934003829956055,
        0.09126586467027664,
        -0.02596568502485752
      ],
      "type": "VEC3"
    },
    {
      "bufferView": 2,
      "byteOffset": 551064,
      "componentType": 5126,
      "count": 234,
      "max": [
        1.0,
        0.9659259915351868,
        0.9659261107444763
      ],
      "min": [
        -1.0,
        -0.9659259915351868,
        -0.9659250974655151
      ],
      "type": "VEC3"
    },
    {
      "bufferView": 1,
      "byteOffset": 182752,
      "componentType": 5126,
      "count": 234,
      "max": [
        1.0,
        0.9524614214897156
      ],
      "min": [
        0.0,
        0.01000000536441803
      ],
      "type": "VEC2"
    },
    {
      "bufferView": 0,
      "byteOffset": 128796,
      "componentType": 5125,
      "count": 348,
      "type": "SCALAR"
    },
    {
      "bufferView": 2,
      "byteOffset": 553872,
      "componentType": 5126,
      "count": 3282,
      "max": [
        0.16659104824066162,
        0.5414636135101318,
        0.331917405128479
      ],
      "min": [
        -1.7800650596618652,
        -0.056511290371418,
        -0.1775495857000351
      ],
      "type": "VEC3"
    },
    {
      "bufferView": 2,
      "byteOffset": 593256,
      "componentType": 5126,
      "count": 3282,
      "max": [
        1.0,
        1.0,
        1.0
      ],
      "min": [
        -1.0,
        -1.0,
        -1.0
      ],
      "type": "VEC3"
    },
    {
      "bufferView": 1,
      "byteOffset": 184624,
      "componentType": 5126,
      "count": 3282,
      "max": [
        1.0,
        1.0
      ],
      "min": [
        0.0,
        0.0
      ],
      "type": "VEC2"
    },
    {
      "bufferView": 0,
      "byteOffset": 130188,
      "componentType": 5125,
      "count": 4788,
      "type": "SCALAR"
    },
    {
      "bufferView": 2,
      "byteOffset": 632640,
      "componentType": 5126,
      "count": 768,
      "max": [
        -1.5318539142608643,
        0.30545487999916077,
        0.3757534623146057
      ],
      "min": [
        -1.8875083923339844,
        0.13408201932907104,
        0.14226475358009338
      ],
      "type": "VEC3"
    },
    {
      "bufferView": 2,
      "byteOffset": 641856,
      "componentType": 5126,
      "count": 768,
      "max": [
        0.9990484118461609,
        1.0,
        0.99904865026474
      ],
      "min": [
        -0.9990517497062683,
        -1.0,
        -0.9990482926368713
      ],
      "type": "VEC3"
    },
    {
      "bufferView": 1,
      "byteOffset": 210880,
      "componentType": 5126,
      "count": 768,
      "max": [
        1.0,
        0.9289274215698242
      ],
      "min": [
        0.0,
        0.06029520928859711
      ],
      "type": "VEC2"
    },
    {
      "bufferView": 0,
      "byteOffset": 149340,
      "componentType": 5125,
      "count": 1134,
      "type": "SCALAR"
    },
    {
      "bufferView": 2,
      "byteOffset": 651072,
      "componentType": 5126,
      "count": 1340,
      "max": [
        0.5691889524459839,
        0.1307990849018097,
        0.10258976370096207
      ],
      "min": [
        5.5539057797204805e-08,
        -0.13079917430877686,
        -0.10258977860212326
      ],
      "type": "VEC3"
    },
    {
      "bufferView": 2,
      "byteOffset": 667152,
      "componentType": 5126,
      "count": 1340,
      "max": [
        1.0,
        1.0,
        0.9916046261787415
      ],
      "min": [
        -1.0,
        -1.0,
        -0.9916046261787415
      ],
      "type": "VEC3"
    },
    {
      "bufferView": 1,
      "byteOffset": 217024,
      "componentType": 5126,
      "count": 1340,
      "max": [
        1.044194221496582,
        1.0000402927398682
      ],
      "min": [
        0.0,
        0.28070497512817383
      ],
      "type": "VEC2"
    },
    {
      "bufferView": 0,
      "byteOffset": 153876,
      "componentType": 5125,
      "count": 1872,
      "type": "SCALAR"
    },
    {
      "bufferView": 2,
      "byteOffset": 683232,
      "componentType": 5126,
      "count": 3910,
      "max": [
        0.5313042998313904,
        0.9525092840194702,
        0.13376262784004211
      ],
      "min": [
        -0.3448981046676636,
        -1.0033924579620361,
        -0.13376262784004211
      ],
      "type": "VEC3"
    },
    {
      "bufferView": 2,
      "byteOffset": 730152,
      "componentType": 5126,
      "count": 3910,
      "max": [
        1.0,
        1.0,
        1.0
      ],
      "min": [
        -1.0,
        -1.0,
        -1.0
      ],
      "type": "VEC3"
    },
    {
      "bufferView": 1,
      "byteOffset": 227744,
      "componentType": 5126,
      "count": 3910,
      "max": [
        0.875,
        1.0
      ],
      "min": [
        0.125,
        0.0
      ],
      "type": "VEC2"
    },
    {
      "bufferView": 0,
      "byteOffset": 161364,
      "componentType": 5125,
      "count": 5604,
      "type": "SCALAR"
    },
    {
      "bufferView": 2,
      "byteOffset": 777072,
      "componentType": 5126,
      "count": 3596,
      "max": [
        0.5313042998313904,
        0.9525092840194702,
        0.13376262784004211
      ],
      "min": [
        -0.3448981046676636,
        -1.0033924579620361,
        -0.13376262784004211
      ],
      "type": "VEC3"
    },
    {
      "bufferView": 2,
      "byteOffset": 820224,
      "componentType": 5126,
      "count": 3596,
      "max": [
        1.0,
        1.0,
        1.0
      ],
      "min": [
        -1.0,
        -1.0,
        -1.0
      ],
      "type": "VEC3"
    },
    {
      "bufferView": 1,
      "byteOffset": 259024,
      "componentType": 5126,
      "count": 3596,
      "max": [
        0.625,
        1.0
      ],
      "min": [
        0.5405468940734863,
        0.0
      ],
      "type": "VEC2"
    },
    {
      "bufferView": 0,
      "byteOffset": 183780,
      "componentType": 5125,
      "count": 5142,
      "type": "SCALAR"
    },
    {
      "bufferView": 2,
      "byteOffset": 863376,
      "componentType": 5126,
      "count": 1376,
      "max": [
        0.1600000262260437,
        0.9493294358253479,
        0.08605003356933594
      ],
      "min": [
        -0.28700003027915955,
        0.7573294043540955,
        -0.08605004101991653
      ],
      "type": "VEC3"
    },
    {
      "bufferView": 2,
      "byteOffset": 879888,
      "componentType": 5126,
      "count": 1376,
      "max": [
        1.0,
        0.9238806366920471,
        0.9238799810409546
      ],
      "min": [
        -1.0,
        -0.9238805174827576,
        -0.9238799214363098
      ],
      "type": "VEC3"
    },
    {
      "bufferView": 1,
      "byteOffset": 287792,
      "componentType": 5126,
      "count": 1376,
      "max": [
        0.6146138906478882,
        0.9551718235015869
      ],
      "min": [
        7.564024961936866e-09,
        2.224294171071506e-08
      ],
      "type": "VEC2"
    },
    {
      "bufferView": 0,
      "byteOffset": 204348,
      "componentType": 5125,
      "count": 2070,
      "type": "SCALAR"
    },
    {
      "bufferView": 2,
      "byteOffset": 896400,
      "componentType": 5126,
      "count": 516,
      "max": [
        0.28700000047683716,
        0.9298295378684998,
        0.06654989719390869
      ],
      "min": [
        0.1599999964237213,
        0.7768294811248779,
        -0.06655015796422958
      ],
      "type": "VEC3"
    },
    {
      "bufferView": 2,
      "byteOffset": 902592,
      "componentType": 5126,
      "count": 516,
      "max": [
        1.0,
        0.9229360222816467,
        0.9229357838630676
      ],
      "min": [
        0.04518942907452583,
        -0.9229358434677124,
        -0.9229358434677124
      ],
      "type": "VEC3"
    },
    {
      "bufferView": 1,
      "byteOffset": 298800,
      "componentType": 5126,
      "count": 516,
      "max": [
        0.6428957581520081,
        0.9196081161499023
      ],
      "min": [
        0.0,
        0.7103414535522461
      ],
      "type": "VEC2"
    },
    {
      "bufferView": 0,
      "byteOffset": 212628,
      "componentType": 5125,
      "count": 774,
      "type": "SCALAR"
    },
    {
      "bufferView": 2,
      "byteOffset": 908784,
      "componentType": 5126,
      "count": 1012,
      "max": [
        0.18151915073394775,
        0.37668508291244507,
        0.16196106374263763
      ],
      "min": [
        -0.5731707811355591,
        -0.9287362694740295,
        -0.16196106374263763
      ],
      "type": "VEC3"
    },
    {
      "bufferView": 2,
      "byteOffset": 920928,
      "componentType": 5126,
      "count": 1012,
      "max": [
        1.0,
        1.0,
        1.0
      ],
      "min": [
        -0.9901111721992493,
        -1.0,
        -1.0
      ],
      "type": "VEC3"
    },
    {
      "bufferView": 1,
      "byteOffset": 302928,
      "componentType": 5126,
      "count": 1012,
      "max": [
        0.766623854637146,
        0.5688604712486267
      ],
      "min": [
        0.125,
        0.1925760805606842
      ],
      "type": "VEC2"
    },
    {
      "bufferView": 0,
      "byteOffset": 215724,
      "componentType": 5125,
      "count": 1350,
      "type": "SCALAR"
    },
    {
      "bufferView": 2,
      "byteOffset": 933072,
      "componentType": 5126,
      "count": 2024,
      "max": [
        0.16919361054897308,
        0.17989689111709595,
        0.1951235681772232
      ],
      "min": [
        -1.5222296714782715,
        -1.0329734086990356,
        -0.1951235681772232
      ],
      "type": "VEC3"
    },
    {
      "bufferView": 2,
      "byteOffset": 957360,
      "componentType": 5126,
      "count": 2024,
      "max": [
        1.0,
        1.0,
        1.0
      ],
      "min": [
        -1.0,
        -1.0,
        -1.0
      ],
      "type": "VEC3"
    },
    {
      "bufferView": 1,
      "byteOffset": 311024,
      "componentType": 5126,
      "count": 2024,
      "max": [
        1.0,
        1.0
      ],
      "min": [
        0.0,
        -0.011740523390471935
      ],
      "type": "VEC2"
    },
    {
      "bufferView": 0,
      "byteOffset": 221124,
      "componentType": 5125,
      "count": 2814,
      "type": "SCALAR"
    },
    {
      "bufferView": 2,
      "byteOffset": 981648,
      "componentType": 5126,
      "count": 160,
      "max": [
        -1.0844440460205078,
        -0.5405157208442688,
        0.10190027207136154
      ],
      "min": [
        -1.2080069780349731,
        -0.6640923023223877,
        -0.10190027207136154
      ],
      "type": "VEC3"
    },
    {
      "bufferView": 2,
      "byteOffset": 983568,
      "componentType": 5126,
      "count": 160,
      "max": [
        0.9988455772399902,
        0.9988455772399902,
        1.0
      ],
      "min": [
        -0.998845636844635,
        -0.9988458156585693,
        -1.0
      ],
      "type": "VEC3"
    },
    {
      "bufferView": 1,
      "byteOffset": 327216,
      "componentType": 5126,
      "count": 160,
      "max": [
        0.6514894366264343,
        0.6241210699081421
      ],
      "min": [
        0.6514891386032104,
        0.5786781311035156
      ],
      "type": "VEC2"
    },
    {
      "bufferView": 0,
      "byteOffset": 232380,
      "componentType": 5125,
      "count": 240,
      "type": "SCALAR"
    },
    {
      "bufferView": 2,
      "byteOffset": 985488,
      "componentType": 5126,
      "count": 3466,
      "max": [
        1.3164705038070679,
        0.32169657945632935,
        0.2172335684299469
      ],
      "min": [
        -0.9840430617332458,
        -0.3035907745361328,
        -0.2172335684299469
      ],
      "type": "VEC3"
    },
    {
      "bufferView": 2,
      "byteOffset": 1027080,
      "componentType": 5126,
      "count": 3466,
      "max": [
        1.0,
        1.0,
        1.0
      ],
      "min": [
        -1.0,
        -1.0,
        -1.0
      ],
      "type": "VEC3"
    },
    {
      "bufferView": 1,
      "byteOffset": 328496,
      "componentType": 5126,
      "count": 3466,
      "max": [
        0.875,
        1.0
      ],
      "min": [
        0.125,
        0.0
      ],
      "type": "VEC2"
    },
    {
      "bufferView": 0,
      "byteOffset": 233340,
      "componentType": 5125,
      "count": 5160,
      "type": "SCALAR"
    },
    {
      "bufferView": 2,
      "byteOffset": 1068672,
      "componentType": 5126,
      "count": 336,
      "max": [
        -0.5227386951446533,
        -0.15318945050239563,
        0.08961606025695801
      ],
      "min": [
        -0.9202889204025269,
        -0.2918754518032074,
        -0.08961606025695801
      ],
      "type": "VEC3"
    },
    {
      "bufferView": 2,
      "byteOffset": 1072704,
      "componentType": 5126,
      "count": 336,
      "max": [
        1.0,
        1.0,
        1.0
      ],
      "min": [
        -1.0,
        -1.0,
        -1.0
      ],
      "type": "VEC3"
    },
    {
      "bufferView": 1,
      "byteOffset": 356224,
      "componentType": 5126,
      "count": 336,
      "max": [
        0.39027902483940125,
        0.7013500928878784
      ],
      "min": [
        0.16721999645233154,
        0.11343570053577423
      ],
      "type": "VEC2"
    },
    {
      "bufferView": 0,
      "byteOffset": 253980,
      "componentType": 5125,
      "count": 486,
      "type": "SCALAR"
    },
    {
      "bufferView": 2,
      "byteOffset": 1076736,
      "componentType": 5126,
      "count": 3045,
      "max": [
        3.4598746299743652,
        0.42899999022483826,
        0.1710391640663147
      ],
      "min": [
        -0.2705274224281311,
        -0.020999997854232788,
        -0.1550000011920929
      ],
      "type": "VEC3"
    },
    {
      "bufferView": 2,
      "byteOffset": 1113276,
      "componentType": 5126,
      "count": 3045,
      "max": [
        1.0,
        1.0,
        1.0
      ],
      "min": [
        -1.0,
        -1.0,
        -1.0
      ],
      "type": "VEC3"
    },
    {
      "bufferView": 1,
      "byteOffset": 358912,
      "componentType": 5126,
      "count": 3045,
      "max": [
        1.0,
        1.0
      ],
      "min": [
        0.0,
        0.01000000536441803
      ],
      "type": "VEC2"
    },
    {
      "bufferView": 0,
      "byteOffset": 255924,
      "componentType": 5125,
      "count": 4410,
      "type": "SCALAR"
    }
  ],
  "asset": {
    "extras": {
      "author": "D_U (https://sketchfab.com/DU1701)",
      "license": "CC-BY-4.0 (http://creativecommons.org/licenses/by/4.0/)",
      "source": "https://sketchfab.com/3d-models/low-poly-uar15-s1-a93702198de94e8ba9a1c855f518aca2",
      "title": "low-poly UAR15 S1"
    },
    "generator": "Sketchfab-0.3.0",
    "version": "2.0"
  },
  "bufferViews": [
    {
      "buffer": 0,
      "byteLength": 273564,
      "name": "floatBufferViews",
      "target": 34963
    },
    {
      "buffer": 0,
      "byteLength": 383272,
      "byteOffset": 273564,
      "byteStride": 8,
      "name": "floatBufferViews",
      "target": 34962
    },
    {
      "buffer": 0,
      "byteLength": 1149816,
      "byteOffset": 656836,
      "byteStride": 12,
      "name": "floatBufferViews",
      "target": 34962
    }
  ],
  "buffers": [
    {
      "byteLength": 1806652,
      "uri": "scene.bin"
    }
  ],
  "materials": [
    {
      "doubleSided": true,
      "name": "h-190",
      "pbrMetallicRoughness": {
        "baseColorFactor": [
          0.0109601,
          0.0109601,
          0.0109601,
          1.0
        ],
        "metallicFactor": 0.5,
        "roughnessFactor": 0.5
      }
    },
    {
      "doubleSided": true,
      "name": "brass",
      "pbrMetallicRoughness": {
        "baseColorFactor": [
          0.445201,
          0.366252,
          0.0528608,
          1.0
        ],
        "roughnessFactor": 0.3
      }
    },
    {
      "doubleSided": true,
      "name": "copper",
      "pbrMetallicRoughness": {
        "baseColorFactor": [
          0.47932,
          0.171441,
          0.0331048,
          1.0
        ],
        "roughnessFactor": 0.3
      }
    },
    {
      "doubleSided": true,
      "name": "odgreen",
      "pbrMetallicRoughness": {
        "baseColorFactor": [
          0.104616,
          0.0975873,
          0.0722719,
          1.0
        ],
        "metallicFactor": 0.5,
        "roughnessFactor": 0.5
      }
    },
    {
      "doubleSided": true,
      "name": "stell",
      "pbrMetallicRoughness": {
        "baseColorFactor": [
          0.203312,
          0.203312,
          0.203312,
          1.0
        ],
        "metallicFactor": 0.5,
        "roughnessFactor": 0.5
      }
    },
    {
      "doubleSided": true,
      "name": "polymer",
      "pbrMetallicRoughness": {
        "baseColorFactor": [
          0.0202885,
          0.0202885,
          0.0202886,
          1.0
        ],
        "metallicFactor": 0.0,
        "roughnessFactor": 0.7
      }
    }
  ],
  "meshes": [
    {
      "name": "Object_0",
      "primitives": [
        {
          "attributes": {
            "NORMAL": 1,
            "POSITION": 0,
            "TEXCOORD_0": 2
          },
          "indices": 3,
          "material": 0,
          "mode": 4
        }
      ]
    },
    {
      "name": "Object_1",
      "primitives": [
        {
          "attributes": {
            "NORMAL": 5,
            "POSITION": 4,
            "TEXCOORD_0": 6
          },
          "indices": 7,
          "material": 0,
          "mode": 4
        }
      ]
    },
    {
      "name": "Object_2",
      "primitives": [
        {
          "attributes": {
            "NORMAL": 9,
            "POSITION": 8,
            "TEXCOORD_0": 10
          },
          "indices": 11,
          "material": 0,
          "mode": 4
        }
      ]
    },
    {
      "name": "Object_3",
      "primitives": [
        {
          "attributes": {
            "NORMAL": 13,
            "POSITION": 12,
            "TEXCOORD_0": 14
          },
          "indices": 15,
          "material": 0,
          "mode": 4
        }
      ]
    },
    {
      "name": "Object_4",
      "primitives": [
        {
          "attributes": {
            "NORMAL": 17,
            "POSITION": 16,
            "TEXCOORD_0": 18
          },
          "indices": 19,
          "material": 0,
          "mode": 4
        }
      ]
    },
    {
      "name": "Object_5",
      "primitives": [
        {
          "attributes": {
            "NORMAL": 21,
            "POSITION": 20,
            "TEXCOORD_0": 22
          },
          "indices": 23,
          "material": 0,
          "mode": 4
        }
      ]
    },
    {
      "name": "Object_6",
      "primitives": [
        {
          "attributes": {
            "NORMAL": 25,
            "POSITION": 24,
            "TEXCOORD_0": 26
          },
          "indices": 27,
          "material": 0,
          "mode": 4
        }
      ]
    },
    {
      "name": "Object_7",
      "primitives": [
        {
          "attributes": {
            "NORMAL": 29,
            "POSITION": 28,
            "TEXCOORD_0": 30
          },
          "indices": 31,
          "material": 1,
          "mode": 4
        }
      ]
    },
    {
      "name": "Object_8",
      "primitives": [
        {
          "attributes": {
            "NORMAL": 33,
            "POSITION": 32,
            "TEXCOORD_0": 34
          },
          "indices": 35,
          "material": 1,
          "mode": 4
        }
      ]
    },
    {
      "name": "Object_9",
      "primitives": [
        {
          "attributes": {
            "NORMAL": 37,
            "POSITION": 36,
            "TEXCOORD_0": 38
          },
          "indices": 39,
          "material": 2,
          "mode": 4
        }
      ]
    },
    {
      "name": "Object_10",
      "primitives": [
        {
          "attributes": {
            "NORMAL": 41,
            "POSITION": 40,
            "TEXCOORD_0": 42
          },
          "indices": 43,
          "material": 3,
          "mode": 4
        }
      ]
    },
    {
      "name": "Object_11",
      "primitives": [
        {
          "attributes": {
            "NORMAL": 45,
            "POSITION": 44,
            "TEXCOORD_0": 46
          },
          "indices": 47,
          "material": 0,
          "mode": 4
        }
      ]
    },
    {
      "name": "Object_12",
      "primitives": [
        {
          "attributes": {
            "NORMAL": 49,
            "POSITION": 48,
            "TEXCOORD_0": 50
          },
          "indices": 51,
          "material": 0,
          "mode": 4
        }
      ]
    },
    {
      "name": "Object_13",
      "primitives": [
        {
          "attributes": {
            "NORMAL": 53,
            "POSITION": 52,
            "TEXCOORD_0": 54
          },
          "indices": 55,
          "material": 4,
          "mode": 4
        }
      ]
    },
    {
      "name": "Object_14",
      "primitives": [
        {
          "attributes": {
            "NORMAL": 57,
            "POSITION": 56,
            "TEXCOORD_0": 58
          },
          "indices": 59,
          "material": 3,
          "mode": 4
        }
      ]
    },
    {
      "name": "Object_15",
      "primitives": [
        {
          "attributes": {
            "NORMAL": 61,
            "POSITION": 60,
            "TEXCOORD_0": 62
          },
          "indices": 63,
          "material": 0,
          "mode": 4
        }
      ]
    },
    {
      "name": "Object_16",
      "primitives": [
        {
          "attributes": {
            "NORMAL": 65,
            "POSITION": 64,
            "TEXCOORD_0": 66
          },
          "indices": 67,
          "material": 0,
          "mode": 4
        }
      ]
    },
    {
      "name": "Object_17",
      "primitives": [
        {
          "attributes": {
            "NORMAL": 69,
            "POSITION": 68,
            "TEXCOORD_0": 70
          },
          "indices": 71,
          "material": 5,
          "mode": 4
        }
      ]
    },
    {
      "name": "Object_18",
      "primitives": [
        {
          "attributes": {
            "NORMAL": 73,
            "POSITION": 72,
            "TEXCOORD_0": 74
          },
          "indices": 75,
          "material": 5,
          "mode": 4
        }
      ]
    },
    {
      "name": "Object_19",
      "primitives": [
        {
          "attributes": {
            "NORMAL": 77,
            "POSITION": 76,
            "TEXCOORD_0": 78
          },
          "indices": 79,
          "material": 1,
          "mode": 4
        }
      ]
    },
    {
      "name": "Object_20",
      "primitives": [
        {
          "attributes": {
            "NORMAL": 81,
            "POSITION": 80,
            "TEXCOORD_0": 82
          },
          "indices": 83,
          "material": 2,
          "mode": 4
        }
      ]
    },
    {
      "name": "Object_21",
      "primitives": [
        {
          "attributes": {
            "NORMAL": 85,
            "POSITION": 84,
            "TEXCOORD_0": 86
          },
          "indices": 87,
          "material": 5,
          "mode": 4
        }
      ]
    },
    {
      "name": "Object_22",
      "primitives": [
        {
          "attributes": {
            "NORMAL": 89,
            "POSITION": 88,
            "TEXCOORD_0": 90
          },
          "indices": 91,
          "material": 5,
          "mode": 4
        }
      ]
    },
    {
      "name": "Object_23",
      "primitives": [
        {
          "attributes": {
            "NORMAL": 93,
            "POSITION": 92,
            "TEXCOORD_0": 94
          },
          "indices": 95,
          "material": 0,
          "mode": 4
        }
      ]
    },
    {
      "name": "Object_24",
      "primitives": [
        {
          "attributes": {
            "NORMAL": 97,
            "POSITION": 96,
            "TEXCOORD_0": 98
          },
          "indices": 99,
          "material": 3,
          "mode": 4
        }
      ]
    },
    {
      "name": "Object_25",
      "primitives": [
        {
          "attributes": {
            "NORMAL": 101,
            "POSITION": 100,
            "TEXCOORD_0": 102
          },
          "indices": 103,
          "material": 0,
          "mode": 4
        }
      ]
    },
    {
      "name": "Object_26",
      "primitives": [
        {
          "attributes": {
            "NORMAL": 105,
            "POSITION": 104,
            "TEXCOORD_0": 106
          },
          "indices": 107,
          "material": 0,
          "mode": 4
        }
      ]
    }
  ],
  "nodes": [
    {
      "children": [
        1
      ],
      "matrix": [
        1.0,
        0.0,
        0.0,
        0.0,
        0.0,
        2.220446049250313e-16,
        -1.0,
        0.0,
        0.0,
        1.0,
        2.220446049250313e-16,
        0.0,
        0.0,
        0.0,
        0.0,
        1.0
      ],
      "name": "Sketchfab_model"
    },
    {
      "children": [
        2
      ],
      "name": "root"
    },
    {
      "children": [
        3,
        5,
        7,
        9,
        11,
        13,
        15,
        17,
        19,
        22,
        25,
        28,
        31,
        33,
        35,
        39,
        41,
        44,
        47
      ],
      "matrix": [
        1.0,
        0.0,
        0.0,
        0.0,
        0.0,
        2.220446049250313e-16,
        1.0,
        0.0,
        0.0,
        -1.0,
        2.220446049250313e-16,
        0.0,
        0.0,
        0.0,
        0.0,
        1.0
      ],
      "name": "GLTF_SceneRootNode"
    },
    {
      "children": [
        4
      ],
      "matrix": [
        1.0,
        0.0,
        0.0,
        0.0,
        0.0,
        1.0,
        0.0,
        0.0,
        0.0,
        0.0,
        1.0,
        0.0,
        -1.130008339881897,
        -0.17461514472961426,
        0.0,
        1.0
      ],
      "name": "uar15 trigga_0"
    },
    {
      "mesh": 0,
      "name": "Object_4"
    },
    {
      "children": [
        6
      ],
      "matrix": [
        1.0,
        0.0,
        0.0,
        0.0,
        0.0,
        1.0,
        0.0,
        0.0,
        0.0,
        0.0,
        1.0,
        0.0,
        -1.4102364778518677,
        -0.11587730050086975,
        0.001265431521460414,
        1.0
      ],
      "name": "uar15 selector_1"
    },
    {
      "mesh": 1,
      "name": "Object_6"
    },
    {
      "children": [
        8
      ],
      "matrix": [
        1.0,
        0.0,
        0.0,
        0.0,
        0.0,
        1.0,
        0.0,
        0.0,
        0.0,
        0.0,
        1.0,
        0.0,
        -0.7812903523445129,
        -0.14322862029075623,
        0.009273020550608635,
        1.0
      ],
      "name": "uar15 mag catch_2"
    },
    {
      "mesh": 2,
      "name": "Object_8"
    },
    {
      "children": [
        10
      ],
      "matrix": [
        1.0,
        0.0,
        0.0,
        0.0,
        0.0,
        -0.9987848430019739,
        0.049283236394560385,
        0.0,
        0.0,
        -0.049283236394560385,
        -0.9987848430019739,
        0.0,
        -0.47416332364082336,
        0.1507013440132141,
        0.16197866201400757,
        1.0
      ],
      "name": "uar15 dust cover_3"
    },
    {
      "mesh": 3,
      "name": "Object_10"
    },
    {
      "children": [
        12
      ],
      "matrix": [
        1.0,
        0.0,
        0.0,
        0.0,
        0.0,
        1.0,
        0.0,
        0.0,
        0.0,
        0.0,
        1.0,
        0.0,
        -1.6016662120819092,
        0.4423871636390686,
        0.0,
        1.0
      ],
      "name": "uar15 charging handle_4"
    },
    {
      "mesh": 4,
      "name": "Object_12"
    },
    {
      "children": [
        14
      ],
      "matrix": [
        1.0,
        0.0,
        0.0,
        0.0,
        0.0,
        1.0,
        0.0,
        0.0,
        0.0,
        0.0,
        1.0,
        0.0,
        -0.7858107686042786,
        0.013210535049438477,
        -0.1566212922334671,
        1.0
      ],
      "name": "uar15 bolt catch_5"
    },
    {
      "mesh": 5,
      "name": "Object_14"
    },
    {
      "children": [
        16
      ],
      "matrix": [
        1.0,
        0.0,
        0.0,
        0.0,
        0.0,
        1.0,
        0.0,
        0.0,
        0.0,
        0.0,
        1.0,
        0.0,
        -0.8331226706504822,
        0.21976858377456665,
        0.0,
        1.0
      ],
      "name": "uar15 bolt_6"
    },
    {
      "mesh": 6,
      "name": "Object_16"
    },
    {
      "children": [
        18
      ],
      "matrix": [
        1.0,
        0.0,
        0.0,
        0.0,
        0.0,
        1.0,
        0.0,
        0.0,
        0.0,
        0.0,
        1.0,
        0.0,
        2.458930253982544,
        -0.4584529995918274,
        0.0,
        1.0
      ],
      "name": "55645 case_7"
    },
    {
      "mesh": 7,
      "name": "Object_18"
    },
    {
      "children": [
        20,
        21
      ],
      "matrix": [
        1.0,
        0.0,
        0.0,
        0.0,
        0.0,
        1.0,
        0.0,
        0.0,
        0.0,
        0.0,
        1.0,
        0.0,
        2.597398042678833,
        -0.3949529528617859,
        0.0,
        1.0
      ],
      "name": "55645_8"
    },
    {
      "mesh": 8,
      "name": "Object_20"
    },
    {
      "mesh": 9,
      "name": "Object_21"
    },
    {
      "children": [
        23,
        24
      ],
      "name": "uar15 lower_9"
    },
    {
      "mesh": 10,
      "name": "Object_23"
    },
    {
      "mesh": 11,
      "name": "Object_24"
    },
    {
      "children": [
        26,
        27
      ],
      "matrix": [
        1.0,
        0.0,
        0.0,
        0.0,
        0.0,
        1.0,
        0.0,
        0.0,
        0.0,
        0.0,
        1.0,
        0.0,
        1.0372546911239624,
        0.2197670042514801,
        0.0,
        1.0
      ],
      "name": "uar15 10.5in barrel_10"
    },
    {
      "mesh": 12,
      "name": "Object_26"
    },
    {
      "mesh": 13,
      "name": "Object_27"
    },
    {
      "children": [
        29,
        30
      ],
      "name": "uar15 upper_11"
    },
    {
      "mesh": 14,
      "name": "Object_29"
    },
    {
      "mesh": 15,
      "name": "Object_30"
    },
    {
      "children": [
        32
      ],
      "matrix": [
        1.0,
        0.0,
        0.0,
        0.0,
        0.0,
        1.0,
        0.0,
        0.0,
        0.0,
        0.0,
        1.0,
        0.0,
        2.421933650970459,
        0.21976760029792786,
        0.0,
        1.0
      ],
      "name": "uar15 flash hider_12"
    },
    {
      "mesh": 16,
      "name": "Object_32"
    },
    {
      "children": [
        34
      ],
      "matrix": [
        1.0,
        0.0,
        0.0,
        0.0,
        0.0,
        1.0,
        0.0,
        0.0,
        0.0,
        0.0,
        1.0,
        0.0,
        -0.3968220055103302,
        -0.7978449463844299,
        0.0,
        1.0
      ],
      "name": "ar15 30rnd mag empty (zbroyar)_13"
    },
    {
      "mesh": 17,
      "name": "Object_34"
    },
    {
      "children": [
        36,
        37,
        38
      ],
      "matrix": [
        1.685873969314855e-07,
        0.9999999999999857,
        0.0,
        0.0,
        -0.9999999999999857,
        1.685873969314855e-07,
        0.0,
        0.0,
        0.0,
        0.0,
        1.0,
        0.0,
        1.2234123945236206,
        -0.8051528334617615,
        0.0,
        1.0
      ],
      "name": "ar15 30rnd mag (zbroyar)_14"
    },
    {
      "mesh": 18,
      "name": "Object_36"
    },
    {
      "mesh": 19,
      "name": "Object_37"
    },
    {
      "mesh": 20,
      "name": "Object_38"
    },
    {
      "children": [
        40
      ],
      "matrix": [
        1.0,
        0.0,
        0.0,
        0.0,
        0.0,
        1.0,
        0.0,
        0.0,
        0.0,
        0.0,
        1.0,
        0.0,
        -1.5049482583999634,
        -0.42745649814605713,
        0.0,
        1.0
      ],
      "name": "uar15 grip_15"
    },
    {
      "mesh": 21,
      "name": "Object_40"
    },
    {
      "children": [
        42,
        43
      ],
      "matrix": [
        1.0,
        0.0,
        0.0,
        0.0,
        0.0,
        1.0,
        0.0,
        0.0,
        0.0,
        0.0,
        1.0,
        0.0,
        -2.2772200107574463,
        0.21976876258850098,
        0.0,
        1.0
      ],
      "name": "uar15 stock_16"
    },
    {
      "mesh": 22,
      "name": "Object_42"
    },
    {
      "mesh": 23,
      "name": "Object_43"
    },
    {
      "children": [
        45,
        46
      ],
      "matrix": [
        1.0,
        0.0,
        0.0,
        0.0,
        0.0,
        1.0,
        0.0,
        0.0,
        0.0,
        0.0,
        1.0,
        0.0,
        1.0372546911239624,
        0.2197670042514801,
        0.0,
        1.0
      ],
      "name": "uar15 handguard_17"
    },
    {
      "mesh": 24,
      "name": "Object_45"
    },
    {
      "mesh": 25,
      "name": "Object_46"
    },
    {
      "children": [
        48
      ],
      "matrix": [
        1.0,
        0.0,
        0.0,
        0.0,
        0.0,
        1.0,
        0.0,
        0.0,
        0.0,
        0.0,
        1.0,
        0.0,
        -1.289038062095642,
        0.5114636421203613,
        0.0,
        1.0
      ],
      "name": "uar15 iron sight_18"
    },
    {
      "mesh": 26,
      "name": "Object_48"
    }
  ],
  "scene": 0,
  "scenes": [
    {
      "name": "Sketchfab_Scene",
      "nodes": [
        0
      ]
    }
  ]
}
